HIERARCHY
ROOT hip
{
	OFFSET 0.000000 0.000000 0.000000 
	CHANNELS 6 Xposition Yposition Zposition Xrotation Zrotation Yrotation
	JOINT abdomen
	{
		OFFSET 0.000000 3.402643 0.000000 
		CHANNELS 3 Xrotation Zrotation Yrotation
		JOINT chest
		{
			OFFSET 0.000000 8.438565 -0.680529 
			CHANNELS 3 Xrotation Zrotation Yrotation
			JOINT neck
			{
				OFFSET 0.000000 10.207942 -0.272212 
				CHANNELS 3 Xrotation Zrotation Yrotation
				JOINT head
				{
					OFFSET 0.000000 3.130431 0.000000 
					CHANNELS 3 Xrotation Zrotation Yrotation
					End Site
					{
						OFFSET 0.000000 3.130435 0.000000 
					}
				}
			}
			JOINT lCollar
			{
				OFFSET 3.470700 6.669187 -0.816635 
				CHANNELS 3 Yrotation Zrotation Xrotation
				JOINT lShldr
				{
					OFFSET 3.198488 0.000000 0.000000 
					CHANNELS 3 Zrotation Yrotation Xrotation
					JOINT lForeArm
					{
						OFFSET 10.139888 0.000000 0.000000 
						CHANNELS 3 Yrotation Zrotation Xrotation
						JOINT lHand
						{
							OFFSET 8.370511 0.000000 0.000000 
							CHANNELS 3 Zrotation Yrotation Xrotation
							End Site
							{
								OFFSET 4.083176 0.000000 0.000000 
							}
						}
					}
				}
			}
			JOINT rCollar
			{
				OFFSET -3.470700 6.669187 -0.816635 
				CHANNELS 3 Yrotation Zrotation Xrotation
				JOINT rShldr
				{
					OFFSET -3.198488 0.000000 0.000000 
					CHANNELS 3 Zrotation Yrotation Xrotation
					JOINT rForeArm
					{
						OFFSET -10.139888 0.000000 0.000000 
						CHANNELS 3 Yrotation Zrotation Xrotation
						JOINT rHand
						{
							OFFSET -8.370511 0.000000 0.000000 
							CHANNELS 3 Zrotation Yrotation Xrotation
							End Site
							{
								OFFSET -4.083176 0.000000 0.000000 
							}
						}
					}
				}
			}
		}
	}
	JOINT lThigh
	{
		OFFSET 5.308129 -1.633274 1.361059 
		CHANNELS 3 Xrotation Zrotation Yrotation
		JOINT lShin
		{
			OFFSET -2.041588 -20.007561 0.000000 
			CHANNELS 3 Xrotation Zrotation Yrotation
			JOINT lFoot
			{
				OFFSET 0.000000 -19.190928 -1.224953 
				CHANNELS 3 Xrotation Yrotation Zrotation
				End Site
				{
					OFFSET 0.000000 -2.449906 4.627600 
				}
			}
		}
	}
	JOINT rThigh
	{
		OFFSET -5.308129 -1.633274 1.361059 
		CHANNELS 3 Xrotation Zrotation Yrotation
		JOINT rShin
		{
			OFFSET 2.041588 -20.007561 0.000000 
			CHANNELS 3 Xrotation Zrotation Yrotation
			JOINT rFoot
			{
				OFFSET 0.000000 -19.190928 -1.224953 
				CHANNELS 3 Xrotation Yrotation Zrotation
				End Site
				{
					OFFSET 0.000000 -2.449906 4.627600 
				}
			}
		}
	}
}
MOTION
Frames: 19
Frame Time: 0.033333
-1.483424 41.764149 0.257895 3.007813 -0.361328 91.562439 66.468399 -12.998968 -10.862702 1.376953 6.396485 12.089844 22.436329 -3.461204 -0.355079 -2.607422 0.869141 5.126953 2.000000 -2.000000 0.000000 -55.498047 45.273438 25.114361 -66.727249 -18.003246 -17.914801 19.994732 -23.776226 8.268728 -2.000000 2.000000 0.000000 34.628906 3.105469 98.740234 33.501694 -42.925701 -27.458715 6.861790 13.028346 -69.025024 1.208404 9.310735 20.326242 134.117188 8.725617 -0.396597 -24.420382 13.161650 0.898949 -2.567977 14.466968 5.509141 43.814529 -0.090657 3.007450 -25.001554 -12.633028 -4.040226 
-2.211990 41.818222 0.722618 2.333984 1.630867 84.873070 66.468399 -12.998968 -10.862702 6.162110 5.751953 12.530275 17.142838 -9.850249 -0.798071 -3.740234 4.091796 10.801479 2.000000 -2.000000 0.000000 -63.457035 53.554688 11.923827 -61.819695 -23.001410 -19.184059 22.908783 -23.639002 10.803608 -2.000000 2.000000 0.000000 37.890625 23.271484 102.968750 23.297024 -51.394089 -42.619343 10.696349 13.078424 -68.865669 -6.151994 15.147181 22.337372 138.670197 10.333531 0.160793 -24.225513 10.418888 8.095276 2.616605 16.989170 6.109128 47.105690 -4.519155 2.362359 -28.629150 -8.272469 1.134167 
-2.755975 42.640270 0.871753 5.791016 0.429688 82.529373 66.468399 -12.998968 -10.862702 4.091799 1.376953 11.367422 18.158648 -11.278702 -0.900953 -6.904298 2.031250 10.791018 2.000000 -2.000000 0.000000 -65.712891 57.402344 7.752370 -57.204189 -24.162235 -18.500225 20.118828 -33.346409 5.133348 -2.000000 2.000000 0.000000 40.693359 35.546871 105.234367 17.986988 -55.226143 -52.100277 10.270229 17.048470 -69.828918 -16.490797 13.295055 20.650705 134.246979 9.311795 -0.263152 -23.185331 6.269721 11.385465 7.089538 11.435021 4.353429 43.344398 -5.466187 1.769846 -29.222715 -1.761049 5.031461 
-2.721432 44.097122 0.954682 7.197265 2.929688 81.845703 66.468399 -12.998968 -10.862702 5.546875 -0.976563 11.064455 20.881842 -12.591195 -1.020487 -7.001955 1.591797 8.662110 2.000000 -2.000000 0.000000 -69.824219 60.693363 -7.921171 -54.494820 -37.719620 -22.431778 19.447733 -40.401619 7.424950 -2.000000 2.000000 0.000000 41.816406 43.818359 106.660156 16.198412 -59.097897 -54.847916 7.770273 24.095423 -71.754890 -18.992414 10.584078 19.400061 122.267860 7.369207 -1.136314 -23.189732 2.234679 16.394489 18.887045 4.841369 2.298254 32.192142 -2.363701 1.366148 -24.167150 5.926428 13.154716 
-2.201274 45.969170 0.822470 9.179688 10.791016 83.964844 66.468399 -12.998968 -10.862702 12.802736 -4.375000 11.112535 23.974651 -12.384149 -1.024241 -5.273438 2.490234 4.726563 2.000000 -2.000000 0.000000 -71.650391 61.943359 -23.613281 -50.139156 -54.014000 -24.606945 16.570957 -45.001114 12.505356 -2.000000 2.000000 0.000000 38.291016 46.015621 103.720703 22.166752 -62.675987 -47.844929 3.129581 30.316679 -73.995537 -11.748307 3.682129 17.796135 104.653740 4.999866 -2.049780 -25.226978 -0.654353 22.936611 37.097065 -4.159806 -0.324015 19.315948 5.972380 2.003161 -14.749655 9.137376 37.854836 
-3.185843 45.655083 0.846710 8.046876 -7.558595 81.063171 66.468399 -12.998968 -10.862702 -6.552733 1.562500 9.951393 26.112556 -13.834531 -1.137492 -5.058595 6.035156 9.355472 2.000000 -2.000000 0.000000 -76.728516 59.912109 -22.755219 -46.657398 -48.152184 -28.048998 8.502168 -47.611610 13.172941 -2.000000 2.000000 0.000000 45.439457 54.013672 109.978607 27.390509 -64.133583 -41.218597 -0.238610 30.910625 -75.185791 -34.621666 8.296491 16.271305 99.506783 1.365417 -2.957406 -27.097118 -2.988199 25.983541 16.870779 -3.153970 -0.062717 24.563200 6.736188 2.661349 -15.646670 7.870296 8.648362 
-3.665266 47.373596 1.318402 3.994141 -8.662109 84.726563 66.468399 -12.998968 -10.862702 -7.373046 4.531250 10.420694 32.898270 -10.842914 -0.958816 -10.205079 5.166015 3.554688 2.000000 -2.000000 0.000000 -69.589844 54.374996 -7.314453 -54.787468 -38.727741 -47.765835 -8.279840 -32.489738 15.392287 -2.000000 2.000000 0.000000 35.332027 35.292969 104.638672 39.387672 -81.266251 5.988329 15.365154 19.497864 -73.675156 -23.684515 -2.657634 14.826097 49.441753 1.060478 -1.876779 -21.700859 -0.402751 -11.028845 14.872274 -5.537107 -0.758658 42.965874 12.225348 5.621696 -12.562289 -9.693298 15.671213 
-3.117139 47.643475 2.018949 -1.738281 -3.486328 86.484375 66.468399 -12.998968 -10.862702 -1.464844 8.124999 12.070312 33.960655 -7.616914 -0.728286 -12.724610 4.726562 2.978516 2.000000 -2.000000 0.000000 -65.644531 52.890625 -0.351562 -59.685986 -35.930935 -54.514477 -8.632992 -31.666079 16.714066 -2.000000 2.000000 0.000000 34.287113 23.583986 103.978516 38.193806 -76.204109 10.998616 15.306993 21.198288 -73.874619 -12.512435 -0.715284 16.436913 33.107082 -1.837823 -1.760651 -20.379913 0.847717 -11.835692 16.082283 -1.962844 0.285377 58.342915 11.678554 7.022112 -14.903290 -17.201448 12.767307 
-2.832960 47.025055 2.855522 -9.160156 -2.255859 87.890236 66.468399 -12.998968 -10.862702 0.263672 14.052735 13.723075 34.350040 -3.522629 -0.434682 -11.230471 3.662110 3.554688 2.000000 -2.000000 0.000000 -60.302734 51.035156 6.328125 -66.983307 -34.634548 -62.023239 -7.415108 -30.270609 19.066074 -2.000000 2.000000 0.000000 34.140625 12.275391 104.113403 34.858448 -69.288605 11.045018 14.060098 21.139612 -73.784805 -8.056126 4.901730 18.435631 27.485556 -5.084165 -2.138096 -19.211710 4.414652 -5.104187 10.835983 4.246826 2.142468 75.655998 9.856356 8.240896 -16.132801 -23.209612 12.741066 
-2.349962 45.405033 3.965576 -18.730469 -0.517605 88.525238 66.468399 -12.998968 -10.862702 2.246095 21.738281 16.126663 33.026405 0.842970 -0.107782 -6.542969 2.929687 4.492188 2.000000 -2.000000 0.000000 -53.681641 48.408203 11.628399 -76.431190 -35.038212 -68.342148 -4.724964 -29.224928 21.656473 -2.000000 2.000000 0.000000 34.814453 3.251953 104.619698 32.284599 -60.767467 7.335956 13.528346 20.327042 -73.164970 -4.688047 14.798940 22.267893 32.291927 -7.970707 -3.063427 -19.852680 4.409638 5.166942 5.533395 13.419886 4.971956 92.477585 7.794698 9.022095 -17.239372 -27.617111 11.782202 
-1.906426 43.581184 4.414358 -18.769531 3.857422 92.197922 66.468399 -12.998968 -10.862702 5.244141 19.814453 15.979875 30.531107 7.118208 0.370355 -0.976563 2.041016 2.929688 2.000000 -2.000000 0.000000 -45.751949 40.546879 16.061037 -86.022003 -36.833347 -71.899773 -1.261982 -29.736582 23.034477 -2.000000 2.000000 0.000000 34.941402 -6.777344 103.193359 32.177341 -49.374073 2.736109 14.805796 21.040255 -72.087959 -0.245011 13.454363 21.922356 40.122616 -7.054752 -3.301447 -23.562092 2.697111 13.808103 0.965431 11.007797 4.363732 109.016045 5.985188 9.535629 -20.034201 -28.000177 5.397028 
-1.909483 42.365555 4.218903 -11.894530 5.595703 98.379860 66.468399 -12.998968 -10.862702 6.269532 12.431641 14.113430 27.248566 13.140685 0.863988 2.753906 2.246094 -1.220703 2.000000 -2.000000 0.000000 -41.796875 25.253908 18.861586 -92.242241 -37.100330 -73.026169 2.864246 -31.328930 22.660206 -2.000000 2.000000 0.000000 36.210938 -15.742189 100.563759 32.014538 -38.106869 -0.075032 16.703091 22.219807 -71.108948 2.664798 4.139845 18.479736 44.238354 -3.679044 -2.768704 -29.084909 1.479742 14.331622 -7.433950 1.609311 1.855201 120.342316 1.871891 8.986842 -23.990446 -27.022266 1.012476 
-1.780480 42.281448 3.741003 -5.078125 7.695313 104.395844 66.468399 -12.998968 -10.862702 9.111328 6.230469 12.949219 24.996820 17.986811 1.271490 3.115234 1.650391 -5.869142 2.000000 -2.000000 0.000000 -43.964840 6.015625 23.751026 -92.817207 -32.384758 -70.903770 6.400755 -31.550266 20.958973 -2.000000 2.000000 0.000000 38.154297 -24.140625 97.144440 31.995054 -31.592876 3.426607 18.526005 24.286285 -70.631653 11.492951 -4.110221 15.490133 40.688602 -1.206321 -2.019388 -30.735729 -0.799685 12.834522 -12.107230 -5.906976 -0.261643 122.186920 -2.146973 8.054372 -27.588648 -24.745262 -0.796441 
-1.749665 43.142796 3.406113 -3.378906 6.376954 107.773438 66.468399 -12.998968 -10.862702 8.261720 4.873047 12.569189 24.420414 21.243269 1.550228 2.187621 -0.566396 -9.043234 2.000000 -2.000000 0.000000 -49.609375 -9.687500 29.881168 -91.871315 -26.660114 -66.908813 7.918037 -30.700983 18.177715 -2.000000 2.000000 0.000000 39.365234 -30.839844 93.959839 33.961803 -28.696606 8.801324 19.150984 25.739262 -70.239510 17.937607 -6.414582 14.281417 33.312473 -0.570417 -1.428666 -27.894442 -4.002959 8.966479 -18.565517 -6.559337 -0.209787 116.003647 -2.850315 7.736310 -28.195276 -20.401079 0.929232 
-1.339865 44.596992 3.069278 -4.130859 7.255858 108.359375 66.468399 -12.998968 -10.862702 8.457033 6.240234 12.891685 25.849041 22.467409 1.662269 0.615235 -3.300781 -8.848219 2.000000 -2.000000 0.000000 -52.500000 -16.503908 33.083164 -94.194115 -24.606726 -62.335346 8.387842 -31.264032 14.023546 -2.000000 2.000000 0.000000 38.466797 -35.800781 92.607422 38.357018 -27.536303 11.354603 18.990826 24.492128 -69.706047 27.802332 -4.443168 13.798360 22.702333 -3.292864 -1.412444 -20.886124 -5.634636 1.863079 -18.842091 -2.206344 1.118717 101.852722 -0.732041 7.629111 -27.005398 -15.264819 4.641306 
-0.856119 46.094784 2.579314 -4.394532 7.431641 107.968750 66.468399 -12.998968 -10.862702 7.617188 7.158204 13.009030 27.969511 22.893501 1.669457 -1.357422 -5.761718 -7.675783 2.000000 -2.000000 0.000000 -53.564449 -18.378906 34.664890 -95.755760 -24.306160 -53.665009 8.858499 -33.653111 7.920819 -2.000000 2.000000 0.000000 35.585938 -40.458988 92.474129 44.718414 -25.969078 8.865543 18.076033 20.211975 -68.747711 36.261265 -3.112044 12.901520 13.768036 -6.074285 -1.467351 -12.598433 -4.644594 -9.688044 -16.098875 1.493295 2.101930 82.136658 1.964297 6.941393 -24.742561 -10.998034 9.671255 
-0.445511 47.232746 2.044797 -3.847657 6.767579 107.060547 66.468399 -12.998968 -10.862702 6.054690 7.255859 12.852795 29.898382 22.511215 1.626028 -3.183594 -7.402343 -6.054688 2.000000 -2.000000 0.000000 -52.119141 -15.664063 33.808598 -96.021370 -24.987976 -40.368870 11.623531 -37.456055 0.202931 -2.000000 2.000000 0.000000 32.080082 -44.199223 93.997101 51.116493 -25.417641 4.412640 16.292427 16.483793 -67.570450 41.013950 -2.459979 12.257696 12.873545 -8.092380 -1.819356 -8.201297 -1.485941 -23.843657 -11.515166 3.863646 2.667401 58.433102 4.458056 5.433316 -22.611462 -9.358029 15.558915 
-0.255274 47.535934 1.480654 -1.113281 4.003967 107.441948 66.468399 -12.998968 -10.862702 2.851563 4.921875 11.944197 30.345076 21.928831 1.570660 -2.255860 -8.154296 -6.826173 2.000000 -2.000000 0.000000 -51.044922 -11.660156 33.896488 -93.849541 -24.228596 -25.695868 15.333338 -36.218746 -5.257269 -2.000000 2.000000 0.000000 30.712893 -46.533203 95.041733 54.222198 -30.198868 13.345075 12.293900 20.353945 -68.338760 38.972466 -3.632016 12.234741 26.905031 -8.370224 -2.829592 -12.395518 4.946895 -19.965332 -6.095807 3.188510 2.266757 31.925806 5.846627 3.145857 -20.499949 -8.275688 21.540216 
0.103456 47.173885 0.807342 2.900391 3.046875 107.168488 66.468399 -12.998968 -10.862702 1.435546 2.128906 11.191407 30.832737 19.391857 1.343582 -1.845704 -5.595703 -7.363282 2.000000 -2.000000 0.000000 -49.619137 -3.066406 33.456505 -89.422089 -24.531008 -17.213800 16.201221 -36.401459 -6.960159 -2.000000 2.000000 0.000000 30.634768 -45.576172 95.784042 54.724232 -32.190872 10.174510 8.606951 18.355036 -68.742508 37.330029 -5.457107 11.926871 45.671223 -5.230924 -3.183320 -15.226648 5.129331 -18.823767 0.380515 2.020028 1.717944 16.689323 5.074890 1.618315 -20.652514 -11.373645 21.514975 
